<?xml version="1.0" encoding="UTF-8"?>
<svg xmlns="http://www.w3.org/2000/svg" xmlns:xlink="http://www.w3.org/1999/xlink" width="16px" height="16px" viewBox="0 0 384 384" version="1.1">
<g id="surface1">
<path style=" stroke:none;fill-rule:nonzero;fill:rgb(0%,0%,0%);fill-opacity:1;" d="M 36 48 C 16.125 48 0 64.125 0 84 C 0 95.324219 5.324219 105.976562 14.398438 112.800781 L 177.601562 235.199219 C 186.148438 241.574219 197.851562 241.574219 206.398438 235.199219 L 369.601562 112.800781 C 378.675781 105.976562 384 95.324219 384 84 C 384 64.125 367.875 48 348 48 Z M 0 132 L 0 288 C 0 314.476562 21.523438 336 48 336 L 336 336 C 362.476562 336 384 314.476562 384 288 L 384 132 L 220.800781 254.398438 C 203.699219 267.226562 180.300781 267.226562 163.199219 254.398438 Z M 0 132 "/>
</g>
</svg>
