<?xml version="1.0" encoding="UTF-8"?>
<svg xmlns="http://www.w3.org/2000/svg" xmlns:xlink="http://www.w3.org/1999/xlink" width="16px" height="16px" viewBox="0 0 288 384" version="1.1">
<g id="surface1">
<path style=" stroke:none;fill-rule:nonzero;fill:rgb(0%,0%,0%);fill-opacity:1;" d="M 161.773438 374.398438 C 200.25 326.25 288 209.550781 288 144 C 288 64.5 223.5 0 144 0 C 64.5 0 0 64.5 0 144 C 0 209.550781 87.75 326.25 126.226562 374.398438 C 135.449219 385.875 152.550781 385.875 161.773438 374.398438 Z M 144 96 C 170.507812 96 192 117.492188 192 144 C 192 170.507812 170.507812 192 144 192 C 117.492188 192 96 170.507812 96 144 C 96 117.492188 117.492188 96 144 96 Z M 144 96 "/>
</g>
</svg>
