<?xml version="1.0" encoding="UTF-8"?>
<svg xmlns="http://www.w3.org/2000/svg" xmlns:xlink="http://www.w3.org/1999/xlink" width="16px" height="16px" viewBox="0 0 384 384" version="1.1">
<g id="surface1">
<path style=" stroke:none;fill-rule:nonzero;fill:rgb(0%,0%,0%);fill-opacity:1;" d="M 123.675781 18.449219 C 117.898438 4.5 102.675781 -2.925781 88.125 1.050781 L 22.125 19.050781 C 9.074219 22.648438 0 34.5 0 48 C 0 233.550781 150.449219 384 336 384 C 349.5 384 361.351562 374.925781 364.949219 361.875 L 382.949219 295.875 C 386.925781 281.324219 379.5 266.101562 365.550781 260.324219 L 293.550781 230.324219 C 281.324219 225.226562 267.148438 228.75 258.824219 239.023438 L 228.523438 276 C 175.726562 251.023438 132.976562 208.273438 108 155.476562 L 144.976562 125.25 C 155.25 116.851562 158.773438 102.75 153.675781 90.523438 L 123.675781 18.523438 Z M 123.675781 18.449219 "/>
</g>
</svg>
